<svg width="40" height="40" viewBox="0 0 40 40" fill="none" xmlns="http://www.w3.org/2000/svg">
<rect y="40" width="40" height="40" rx="20" transform="rotate(-90 0 40)" fill="white"/>
<path d="M21.0197 13.3764C21.2608 13.1354 21.5878 13 21.9287 13C22.2697 13 22.5966 13.1354 22.8378 13.3764L28.6236 19.1622C28.8646 19.4034 29 19.7303 29 20.0713C29 20.4122 28.8646 20.7392 28.6236 20.9803L22.8378 26.7661C22.5953 27.0003 22.2705 27.1299 21.9334 27.1269C21.5962 27.124 21.2738 26.9888 21.0354 26.7504C20.797 26.512 20.6618 26.1896 20.6589 25.8524C20.6559 25.5153 20.7855 25.1905 21.0197 24.948L24.5002 21.357H12.2857C11.9447 21.357 11.6177 21.2215 11.3766 20.9804C11.1355 20.7393 11 20.4123 11 20.0713C11 19.7303 11.1355 19.4032 11.3766 19.1621C11.6177 18.921 11.9447 18.7855 12.2857 18.7855H24.5002L21.0197 15.1945C20.7787 14.9534 20.6433 14.6264 20.6433 14.2855C20.6433 13.9445 20.7787 13.6176 21.0197 13.3764Z" fill="black"/>
</svg>
