<svg width="40" height="40" viewBox="0 0 40 40" fill="none" xmlns="http://www.w3.org/2000/svg">
<rect width="40" height="40" rx="20" transform="matrix(0 -1 -1 0 40 40)" fill="white"/>
<path d="M18.9803 13.3764C18.7392 13.1354 18.4122 13 18.0713 13C17.7303 13 17.4034 13.1354 17.1622 13.3764L11.3764 19.1622C11.1354 19.4034 11 19.7303 11 20.0713C11 20.4122 11.1354 20.7392 11.3764 20.9803L17.1622 26.7661C17.4047 27.0003 17.7295 27.1299 18.0666 27.1269C18.4038 27.124 18.7262 26.9888 18.9646 26.7504C19.203 26.512 19.3382 26.1896 19.3411 25.8524C19.3441 25.5153 19.2145 25.1905 18.9803 24.948L15.4998 21.357H27.7143C28.0553 21.357 28.3823 21.2215 28.6234 20.9804C28.8645 20.7393 29 20.4123 29 20.0713C29 19.7303 28.8645 19.4032 28.6234 19.1621C28.3823 18.921 28.0553 18.7855 27.7143 18.7855H15.4998L18.9803 15.1945C19.2213 14.9534 19.3567 14.6264 19.3567 14.2855C19.3567 13.9445 19.2213 13.6176 18.9803 13.3764Z" fill="black"/>
</svg>
