<svg width="20" height="17" viewBox="0 0 20 17" fill="none" xmlns="http://www.w3.org/2000/svg">
<path fill-rule="evenodd" clip-rule="evenodd" d="M11.6176 7.92283C11.4946 7.87183 11.3836 7.79883 11.2916 7.70584L8.29262 4.7069C7.90263 4.31691 7.90263 3.68392 8.29262 3.29293C8.68362 2.90294 9.3166 2.90294 9.70659 3.29293L10.9996 4.5859V0.999979C10.9996 0.44799 11.4476 0 11.9995 0C12.5525 0 12.9995 0.44799 12.9995 0.999979V4.5859L14.2925 3.29293C14.6835 2.90294 15.3165 2.90294 15.7065 3.29293C16.0975 3.68392 16.0975 4.31691 15.7065 4.7069L12.7085 7.70584C12.6155 7.79883 12.5045 7.87183 12.3815 7.92283C12.2595 7.97383 12.1295 7.99983 11.9995 7.99983C11.8695 7.99983 11.7406 7.97383 11.6176 7.92283ZM6.99995 15.5C6.99995 14.672 7.67194 14 8.49992 14C9.3279 14 9.99989 14.672 9.99989 15.5C9.99989 16.328 9.3279 16.9999 8.49992 16.9999C7.67194 16.9999 6.99995 16.328 6.99995 15.5ZM15.4998 14C14.6718 14 13.9998 14.672 13.9998 15.5C13.9998 16.328 14.6718 16.9999 15.4998 16.9999C16.3278 16.9999 16.9997 16.328 16.9997 15.5C16.9997 14.672 16.3278 14 15.4998 14ZM18.0076 3.87202C18.0786 3.32603 18.5806 2.95104 19.1276 3.00804C19.6756 3.07903 20.0626 3.58002 19.9916 4.12801L19.1896 10.3489C19.0226 11.8528 17.7406 12.9998 16.2097 12.9998H8.66881C7.21785 12.9998 5.97687 11.9638 5.71788 10.5359L4.4649 3.64202C4.29091 2.69104 3.46293 2.00006 2.49595 2.00006H0.999979C0.44699 2.00006 0 1.55307 0 1.00008C0 0.44709 0.44699 9.99979e-05 0.999979 9.99979e-05H2.49595C4.42991 9.99979e-05 6.08487 1.38107 6.43186 3.28303L7.68584 10.1789C7.77183 10.6539 8.18583 10.9999 8.66881 10.9999H16.2097C16.7196 10.9999 17.1476 10.6169 17.2026 10.1109L18.0076 3.87202Z" fill="white"/>
</svg>