<svg width="20" height="17" viewBox="0 0 20 17" fill="none" xmlns="http://www.w3.org/2000/svg">
<path fill-rule="evenodd" clip-rule="evenodd" d="M17.2032 10.1101C17.1472 10.6172 16.7202 11.0002 16.2102 11.0002H8.66912C8.18512 11.0002 7.77111 10.6542 7.68511 10.1781L6.7441 5.00007H16.7252C17.0172 5.00007 17.2842 5.12007 17.4763 5.33908C17.6693 5.55808 17.7553 5.83908 17.7173 6.12809L17.2032 10.1101ZM18.9783 4.01806C18.4093 3.37105 17.5883 3.00004 16.7252 3.00004H6.37009C5.91808 1.24502 4.33306 0 2.49604 0H1.00001C0.447006 0 0 0.447006 0 1.00001C0 1.55202 0.447006 2.00003 1.00001 2.00003H2.49604C3.46305 2.00003 4.29106 2.69004 4.46506 3.64105L5.71808 10.5362C5.97609 11.9642 7.2181 13.0002 8.66912 13.0002H16.2102C17.7413 13.0002 19.0223 11.8522 19.1893 10.3481L19.7013 6.38309C19.8113 5.52808 19.5483 4.66707 18.9783 4.01806ZM8.50002 13.9999C7.67201 13.9999 7 14.6719 7 15.4999C7 16.3279 7.67201 16.9999 8.50002 16.9999C9.32803 16.9999 10 16.3279 10 15.4999C10 14.6719 9.32803 13.9999 8.50002 13.9999ZM14.0001 15.4999C14.0001 14.6719 14.6721 13.9999 15.5001 13.9999C16.3281 13.9999 17.0001 14.6719 17.0001 15.4999C17.0001 16.3279 16.3281 16.9999 15.5001 16.9999C14.6721 16.9999 14.0001 16.3279 14.0001 15.4999Z" fill="white"/>
</svg>
