<svg width="16" height="16" viewBox="0 0 16 16" fill="none" xmlns="http://www.w3.org/2000/svg">
<path fill-rule="evenodd" clip-rule="evenodd" d="M12.3313 10.7769C12.3313 10.0029 12.6448 9.24612 13.1916 8.69937C13.4983 8.39262 13.6678 7.98462 13.6678 7.55037C13.6678 7.11612 13.4983 6.70812 13.1916 6.40137C12.6448 5.85387 12.3313 5.09712 12.3313 4.32387C12.3313 3.53112 11.6863 2.88687 10.8943 2.88687C10.1203 2.88687 9.36358 2.57337 8.81683 2.02662C8.51008 1.71912 8.10208 1.55037 7.66783 1.55037C7.23358 1.55037 6.82558 1.71912 6.51883 2.02662C5.97133 2.57337 5.21458 2.88687 4.44133 2.88687C3.64858 2.88687 3.00433 3.53112 3.00433 4.32387C3.00433 5.09712 2.69083 5.85387 2.14408 6.40137C1.83658 6.70812 1.66783 7.11612 1.66783 7.55037C1.66783 7.98462 1.83658 8.39262 2.14408 8.69937C2.69083 9.24612 3.00433 10.0029 3.00433 10.7769C3.00433 11.5689 3.64858 12.2139 4.44133 12.2139C5.21458 12.2139 5.97133 12.5274 6.51883 13.0741C7.13233 13.6876 8.20333 13.6876 8.81683 13.0741C9.36358 12.5274 10.1203 12.2139 10.8943 12.2139C11.6863 12.2139 12.3313 11.5689 12.3313 10.7769ZM13.831 4.32385C13.831 4.7026 13.9848 5.07235 14.2518 5.3401C14.842 5.93035 15.1675 6.71485 15.1675 7.55035C15.1675 8.38511 14.842 9.16961 14.2518 9.75986C13.9848 10.0276 13.831 10.3981 13.831 10.7769C13.831 12.3961 12.5133 13.7139 10.894 13.7139C10.5153 13.7139 10.1448 13.8676 9.87704 14.1346C9.28754 14.7249 8.50229 15.0504 7.66754 15.0504C6.83204 15.0504 6.04754 14.7249 5.45729 14.1346C5.18954 13.8676 4.81979 13.7139 4.44104 13.7139C2.82179 13.7139 1.50404 12.3961 1.50404 10.7769C1.50404 10.3981 1.35029 10.0276 1.08254 9.75986C0.492292 9.17035 0.167542 8.38511 0.167542 7.55035C0.167542 6.71485 0.492292 5.93035 1.08254 5.3401C1.35029 5.07235 1.50404 4.7026 1.50404 4.32385C1.50404 2.7046 2.82179 1.38685 4.44104 1.38685C4.81979 1.38685 5.18954 1.2331 5.45729 0.965354C6.04754 0.375104 6.83204 0.050354 7.66754 0.050354C8.50229 0.050354 9.28754 0.375104 9.87704 0.965354C10.1448 1.2331 10.5153 1.38685 10.894 1.38685C12.5133 1.38685 13.831 2.7046 13.831 4.32385ZM4.88661 9.26996L9.38661 4.76996C9.67986 4.47671 10.1539 4.47671 10.4471 4.76996C10.7404 5.06321 10.7404 5.53721 10.4471 5.83046L5.94711 10.3305C5.80086 10.4767 5.60886 10.5502 5.41686 10.5502C5.22486 10.5502 5.03286 10.4767 4.88661 10.3305C4.59336 10.0372 4.59336 9.56321 4.88661 9.26996ZM9.5424 8.30021C8.9214 8.30021 8.4174 8.8042 8.4174 9.42521C8.4174 10.0462 8.9214 10.5502 9.5424 10.5502C10.1634 10.5502 10.6674 10.0462 10.6674 9.42521C10.6674 8.8042 10.1634 8.30021 9.5424 8.30021ZM6.9174 5.6752C6.9174 6.29621 6.4134 6.8002 5.7924 6.8002C5.1714 6.8002 4.6674 6.29621 4.6674 5.6752C4.6674 5.0542 5.1714 4.5502 5.7924 4.5502C6.4134 4.5502 6.9174 5.0542 6.9174 5.6752Z" fill="black"/>
</svg>
